<svg width="34" height="38" viewBox="0 0 34 38" fill="none" xmlns="http://www.w3.org/2000/svg">
<path id="Vector" d="M16.6667 18.9227C17.8125 18.9227 18.7937 18.5518 19.6104 17.81C20.4271 17.0683 20.8347 16.1776 20.8333 15.1381C20.8333 14.0974 20.425 13.2061 19.6083 12.4644C18.7917 11.7226 17.8111 11.3523 16.6667 11.3536C15.5208 11.3536 14.5396 11.7245 13.7229 12.4663C12.9062 13.208 12.4986 14.0987 12.5 15.1381C12.5 16.1789 12.9083 17.0701 13.725 17.8119C14.5417 18.5537 15.5222 18.9239 16.6667 18.9227ZM16.6667 32.8308C20.9028 29.2986 24.0451 26.0893 26.0937 23.203C28.1424 20.3166 29.1667 17.7545 29.1667 15.5166C29.1667 12.079 27.9597 9.26454 25.5458 7.0733C23.1319 4.88205 20.1722 3.7858 16.6667 3.78454C13.1597 3.78454 10.1993 4.88079 7.78542 7.0733C5.37153 9.2658 4.16528 12.0802 4.16667 15.5166C4.16667 17.7558 5.19097 20.3185 7.23958 23.2049C9.28819 26.0912 12.4306 29.2999 16.6667 32.8308ZM16.6667 37.8454C11.0764 33.5247 6.90139 29.5118 4.14167 25.8067C1.38194 22.1017 0.00138889 18.6716 0 15.5166C0 10.7859 1.67569 7.01716 5.02708 4.2103C8.37847 1.40343 12.2583 0 16.6667 0C21.0764 0 24.9569 1.40343 28.3083 4.2103C31.6597 7.01716 33.3347 10.7859 33.3333 15.5166C33.3333 18.6704 31.9528 22.1004 29.1917 25.8067C26.4306 29.5131 22.2556 33.5259 16.6667 37.8454Z" fill="white"/>
</svg>
