<svg width="40" height="37" viewBox="0 0 40 37" fill="none" xmlns="http://www.w3.org/2000/svg">
<path id="Vector" d="M24.0544 2.53015C24.1087 2.34571 24.2025 2.1728 24.3304 2.0213C24.4584 1.8698 24.6179 1.74268 24.7999 1.64719C24.9819 1.55171 25.1829 1.48974 25.3913 1.46482C25.5997 1.4399 25.8114 1.45252 26.0145 1.50196C28.9806 2.20488 31.6869 3.61328 33.8545 5.58209C36.0221 7.5509 37.5728 10.009 38.3467 12.7031C38.4011 12.8875 38.415 13.0798 38.3876 13.2691C38.3601 13.4584 38.2919 13.6409 38.1868 13.8062C38.0816 13.9716 37.9417 14.1165 37.7749 14.2326C37.6081 14.3488 37.4177 14.434 37.2147 14.4833C37.0795 14.5156 36.9404 14.5321 36.8006 14.5324C36.4481 14.5324 36.1054 14.4266 35.8258 14.2315C35.5462 14.0363 35.3454 13.7628 35.2546 13.4533C34.6234 11.254 33.3579 9.24738 31.5885 7.64027C29.8191 6.03315 27.6098 4.88371 25.1884 4.31041C24.9852 4.26127 24.7946 4.17623 24.6276 4.06013C24.4606 3.94404 24.3204 3.79917 24.2151 3.63382C24.1098 3.46848 24.0414 3.28589 24.0138 3.09651C23.9862 2.90713 24 2.71468 24.0544 2.53015ZM23.5884 10.1235C26.3465 10.792 28.1185 12.4015 28.8545 14.9066C28.9453 15.2161 29.1461 15.4896 29.4257 15.6847C29.7052 15.8799 30.048 15.9857 30.4005 15.9857C30.5403 15.9853 30.6794 15.9689 30.8145 15.9366C31.0176 15.8873 31.208 15.8021 31.3748 15.6859C31.5416 15.5697 31.6815 15.4248 31.7867 15.2595C31.8918 15.0942 31.96 14.9117 31.9875 14.7224C32.0149 14.5331 32.001 14.3408 31.9466 14.1564C30.9225 10.6758 28.2465 8.24515 24.4144 7.31506C24.2114 7.26579 23.9997 7.25334 23.7914 7.27839C23.583 7.30345 23.3822 7.36553 23.2003 7.46109C23.0184 7.55665 22.8589 7.68382 22.7311 7.83534C22.6033 7.98686 22.5096 8.15975 22.4554 8.34416C22.4012 8.52856 22.3874 8.72087 22.415 8.91009C22.4426 9.09931 22.511 9.28174 22.6162 9.44697C22.7214 9.6122 22.8614 9.75699 23.0282 9.87307C23.195 9.98915 23.3854 10.0743 23.5884 10.1235ZM39.9767 27.4447C39.6201 29.9063 38.2891 32.1657 36.2324 33.8011C34.1758 35.4365 31.534 36.336 28.8005 36.3315C12.9202 36.3315 1.80976e-05 24.5963 1.80976e-05 10.1726C-0.00488195 7.6898 0.985409 5.29032 2.78593 3.42227C4.58646 1.55422 7.07408 0.345343 9.78419 0.0214315C10.4695 -0.0545731 11.1635 0.0727719 11.7626 0.384457C12.3617 0.696142 12.8337 1.17545 13.1082 1.75083L17.3323 10.3161V10.3379C17.5425 10.7783 17.6293 11.2592 17.585 11.7375C17.5406 12.2159 17.3666 12.6768 17.0783 13.0791C17.0423 13.1282 17.0043 13.1736 16.9643 13.219L12.8002 17.7023C14.2983 20.4672 17.4823 23.3338 20.5664 24.698L25.4345 20.9359C25.4823 20.8994 25.5323 20.8654 25.5845 20.8342C26.0271 20.566 26.5363 20.4024 27.066 20.358C27.5958 20.3135 28.1294 20.3898 28.6185 20.5798L28.6445 20.5907L38.0667 24.4256C38.7013 24.674 39.2303 25.1024 39.5746 25.6466C39.9188 26.1908 40.0599 26.8216 39.9767 27.4447ZM36.8006 27.0814H36.7786L27.3785 23.2575L22.5084 27.0197C22.4612 27.056 22.4118 27.09 22.3604 27.1214C21.8999 27.4004 21.3676 27.5662 20.8155 27.6025C20.2633 27.6388 19.7103 27.5444 19.2103 27.3285C15.4643 25.6845 11.7302 22.3183 9.91819 18.9522C9.67824 18.5014 9.57057 18.002 9.60561 17.5023C9.64065 17.0026 9.81722 16.5196 10.1182 16.1001C10.1521 16.0509 10.1902 16.0041 10.2322 15.9602L14.4003 11.4714L10.2002 2.93343C10.1994 2.92618 10.1994 2.91888 10.2002 2.91163C8.26067 3.14143 6.47988 4.00552 5.19133 5.34208C3.90278 6.67864 3.19483 8.39601 3.20007 10.1726C3.20748 16.3374 5.90705 22.2478 10.7065 26.6071C15.5059 30.9663 22.0131 33.4182 28.8005 33.425C30.7553 33.4311 32.6455 32.7903 34.1179 31.6225C35.5903 30.4546 36.544 28.8397 36.8006 27.0796V27.0814Z" fill="white"/>
</svg>
